<svg width="24" height="24" viewBox="3 3 22 22" fill="none" xmlns="http://www.w3.org/2000/svg">
  <path
    d="M13.15 18.9904H10.85L8.25 15.3904H7.25V18.8904H5.25V8.89038H9.05C9.73849 8.86888 10.4227 9.00573 11.05 9.29038C11.5805 9.52377 12.032 9.90583 12.35 10.3904C12.649 10.9048 12.7882 11.4966 12.75 12.0904C12.7959 12.8074 12.583 13.5171 12.15 14.0904C11.6985 14.5892 11.1054 14.9381 10.45 15.0904L13.15 18.9904ZM7.35 10.7904V13.6904H8.95C9.41897 13.7322 9.88566 13.5886 10.25 13.2904C10.5248 13.01 10.6788 12.633 10.6788 12.2404C10.6788 11.8477 10.5248 11.4708 10.25 11.1904C9.88566 10.8922 9.41897 10.7486 8.95 10.7904H7.35ZM16.45 18.5904C15.8215 18.2281 15.3034 17.7017 14.9511 17.0675C14.5988 16.4334 14.4256 15.7154 14.45 14.9904V8.99038H16.45V14.9904C16.45 15.5606 16.6765 16.1075 17.0797 16.5107C17.4829 16.9139 18.0298 17.1404 18.6 17.1404C19.1702 17.1404 19.7171 16.9139 20.1203 16.5107C20.5235 16.1075 20.75 15.5606 20.75 14.9904V8.99038H22.75V14.9904C22.7341 15.7303 22.5274 16.4537 22.15 17.0904C21.5697 18.0194 20.6567 18.6918 19.5974 18.9706C18.5382 19.2494 17.4124 19.1134 16.45 18.5904Z"
    fill="currentColor" />
</svg>
  