<svg width="24" height="24" viewBox="3 3 22 22" fill="none" xmlns="http://www.w3.org/2000/svg">
  <path
    d="M7.25022 18.3495C6.65854 18.0273 6.17242 17.5412 5.85022 16.9495C5.51167 16.338 5.33928 15.6484 5.35022 14.9495V9.24951H7.25022V14.8495C7.19921 15.4279 7.37894 16.0031 7.75022 16.4495C7.9408 16.6536 8.17401 16.8132 8.43327 16.9169C8.69254 17.0206 8.97147 17.0659 9.25022 17.0495C9.51234 17.0515 9.77204 16.9992 10.013 16.8959C10.2539 16.7927 10.4709 16.6407 10.6502 16.4495C11.025 16.0385 11.2382 15.5056 11.2502 14.9495V9.24951H13.0502V14.8495C13.0612 15.5484 12.8888 16.238 12.5502 16.8495C12.2194 17.4347 11.7354 17.9187 11.1502 18.2495C10.5387 18.5881 9.84912 18.7605 9.15022 18.7495C8.45132 18.7605 7.76175 18.5881 7.15022 18.2495L7.25022 18.3495ZM18.5502 13.7495L22.6502 18.6495H20.3502L17.0502 14.6495H16.7502V18.6495H14.8502V9.24951H16.7502V13.0495H17.0502L20.1502 9.24951H22.3502L18.5502 13.7495Z"
    fill="currentColor" />
</svg>
  