<svg xmlns="http://www.w3.org/2000/svg" width="24" height="24" viewBox="0 0 24 24">
  <path fill="currentColor"
    d="M16.5 16c.1.3-.5 1.6-.6 1.9-.4.9-1.9 3.8-2.6 4.3-.9.6-1.8.2-2.6-.2-.2-.1-1-.4-1-.6l1.4-1.6c.3-.3.9-1.1.8-1.5-.8-1.5-1.5.2-2 .9l-1 1c-.3.2-.6.5-1 .5l-2-1.3c-.5-.6.4-.6.8-.9s1.5-1 .9-1.6-1.4.4-2 .6L4 18c-.6-.6-2.2-1.7-2.2-2.5C1.8 14 4 14 5 13.6l1.4-.7c.4-.2 1.4-1.3 1.7-1.2l8.5 4.3ZM9.1 10.7c-.1-.3.7-1.1.9-1.3.8-.8 2-1.2 3-1.2 1-1.6 1.7-3.5 2.7-5C17 .7 20.3 2 20 4.4c0 .7-.9 2-1.2 2.7-.5 1-1 2-1.7 3 0 .3.4 1 .5 1.4.2 1 0 2-.5 3l-8-4Z" />
</svg>