<svg xmlns="http://www.w3.org/2000/svg" width="24" height="24" viewBox="0 0 24 24"
  fill="#0077fc"
  stroke="#0077fc" stroke-width="2" stroke-linecap="round" stroke-linejoin="round">
  <path
    d="M14.4659 9.39169C16.4289 8.97128 18.1098 9.52249 19.5254 10.8627C19.9105 11.2294 20.2145 11.7172 20.4352 12.2067C21.7404 15.1017 20.7263 18.1547 17.9843 19.7477C16.9064 20.3724 15.7484 20.6967 14.5182 20.8221C11.9537 21.0775 9.38617 21.0366 6.82189 20.8342C5.03274 20.6947 3.58085 19.3315 3.36858 17.5523C3.0397 14.8032 2.87155 12.0449 3.11686 9.276C3.27662 7.49281 3.92872 5.91575 5.17869 4.62332C7.01271 2.73337 10.4071 2.42346 12.4687 4.06543C14.0165 5.2984 14.7213 6.99016 14.4915 9.01117C14.4817 9.11299 14.4597 9.2153 14.4467 9.32009C14.444 9.32901 14.4531 9.34388 14.4659 9.39144V9.39169Z"
  />
</svg>