<svg xmlns="http://www.w3.org/2000/svg" width="24" height="24" fill="currentColor"
  viewBox="0 0 24 24">
  <path
    d="M12 20.2c-.4 0-.7 0-1 .3-.4.1-.7.4-1 .7-.5.7-1 .9-1.7.4L5.6 20c-.6-.4-.7-1-.4-1.7.5-1.6-.4-3.3-2.1-3.6-1-.3-1.4-.6-1.5-1.6l.1-2.8c0-.7.5-1 1.3-1.2a2.8 2.8 0 0 0 2.3-3.7c-.2-.6-.1-1.1.4-1.5l2.7-1.6c.6-.3 1-.2 1.5.4C11.1 4 13 4 14 2.7c.4-.5.9-.7 1.5-.4 1 .4 2 1 2.9 1.8.5.4.6.9.5 1.5-.5 1.7.4 3.2 2 3.6.9.1 1.2.5 1.3 1.3a8 8 0 0 1 0 3.1c-.1.7-.6 1-1.3 1.2a2.8 2.8 0 0 0-2.3 2.8l.2.8c.2.6 0 1.1-.4 1.5l-2.7 1.7c-.6.3-1 .1-1.5-.4-.6-.7-1.3-1-2.2-1Zm0-11.7A3.5 3.5 0 0 0 8.5 12c0 1.9 1.6 3.5 3.5 3.5s3.4-1.6 3.4-3.5S14 8.5 12 8.5Z" />
</svg>