<svg width="76" height="25" viewBox="0 0 76 25" fill="var(--color_primary)"
  xmlns="http://www.w3.org/2000/svg">
  <g clip-path="url(#clip0_1_59)">
    <path
      d="M10.8333 10.1667C10.3303 10.1652 9.83842 10.3155 9.42213 10.598C9.00584 10.8804 8.68446 11.282 8.5 11.75H13.25C13.0606 11.2684 12.7264 10.8575 12.2935 10.5739C11.8607 10.2903 11.3505 10.148 10.8333 10.1667Z"
      fill="var(--text_primary)" />
    <path
      d="M17.6667 0H8.33333C6.2558 0 4.26337 0.825295 2.79433 2.29433C1.3253 3.76337 0.5 5.7558 0.5 7.83333L0.5 17.1667C0.5 19.2442 1.3253 21.2366 2.79433 22.7057C4.26337 24.1747 6.2558 25 8.33333 25H17.6667C19.7442 25 21.7366 24.1747 23.2057 22.7057C24.6747 21.2366 25.5 19.2442 25.5 17.1667V7.83333C25.5 5.7558 24.6747 3.76337 23.2057 2.29433C21.7366 0.825295 19.7442 0 17.6667 0ZM15.1667 13.75H8.5C8.68446 14.218 9.00584 14.6196 9.42213 14.902C9.83842 15.1845 10.3303 15.3348 10.8333 15.3333C11.4413 15.3481 12.0339 15.1407 12.5 14.75H14.8333C14.2595 15.768 13.3185 16.5284 12.2027 16.8758C11.0869 17.2231 9.8806 17.1311 8.83038 16.6185C7.78016 16.106 6.96538 15.2117 6.55262 14.1184C6.13987 13.0251 6.16031 11.8154 6.60978 10.7367C7.05924 9.658 7.90378 8.79171 8.97072 8.31496C10.0377 7.83821 11.2464 7.78701 12.3498 8.17183C13.4533 8.55666 14.368 9.34843 14.9071 10.3853C15.4462 11.4221 15.5688 12.6257 15.25 13.75H15.1667ZM19.0833 17H16.8333V8.16667H19.0833V17ZM40.5833 16.6667L40.4167 18.4167H38.75C37.9431 18.4824 37.1408 18.2447 36.5 17.75C36.2181 17.4841 35.9975 17.16 35.8535 16.8002C35.7096 16.4405 35.6459 16.0536 35.6667 15.6667V11.0833H34.1667V9.33333H35.6667L36.1667 6.66667H37.75V9.33333H40.4167V11H37.75V15.6667C37.7181 15.8045 37.7217 15.9482 37.7607 16.0842C37.7996 16.2202 37.8725 16.3441 37.9726 16.4441C38.0726 16.5442 38.1965 16.6171 38.3325 16.656C38.4685 16.695 38.6122 16.6986 38.75 16.6667H40.5833ZM50.9167 14.4167H43.5833C43.6441 15.0565 43.9412 15.6508 44.4167 16.0833C44.9513 16.5346 45.634 16.772 46.3333 16.75C46.8185 16.7765 47.3032 16.6909 47.75 16.5C48.1582 16.3268 48.5061 16.0369 48.75 15.6667L50.5833 16C50.2676 16.8133 49.6783 17.4911 48.9167 17.9167C48.1013 18.3681 47.1819 18.5979 46.25 18.5833C45.4082 18.5954 44.5769 18.3948 43.8333 18C43.1345 17.6091 42.5576 17.0322 42.1667 16.3333C41.7504 15.5678 41.5489 14.704 41.5833 13.8333C41.5637 12.9907 41.7648 12.1576 42.1667 11.4167C42.5576 10.7178 43.1345 10.1409 43.8333 9.75C44.5928 9.35556 45.4359 9.14964 46.2917 9.14964C47.1474 9.14964 47.9906 9.35556 48.75 9.75C49.4463 10.1443 50.0224 10.7204 50.4167 11.4167C50.8222 12.1561 51.0236 12.9903 51 13.8333V14.4167H50.9167ZM44.6667 11.4167C44.2112 11.773 43.8884 12.2718 43.75 12.8333H48.8333C48.6838 12.2767 48.3631 11.7812 47.9167 11.4167C47.4389 11.0558 46.8475 10.8784 46.25 10.9167C45.6807 10.8981 45.1221 11.0745 44.6667 11.4167ZM59.0833 10.25C59.7954 11.1139 60.1528 12.216 60.0833 13.3333V18.5H58.5833L58.1667 17C57.8789 17.4784 57.4784 17.8789 57 18.1667C56.4762 18.4966 55.869 18.6701 55.25 18.6667C54.6693 18.6617 54.0981 18.5189 53.5833 18.25C53.1098 18.0305 52.706 17.6844 52.4167 17.25C52.1444 16.797 52.0004 16.2785 52 15.75C51.9962 15.3406 52.093 14.9365 52.2818 14.5732C52.4707 14.21 52.746 13.8987 53.0833 13.6667C53.9692 13.0767 55.0201 12.7847 56.0833 12.8333H58C57.9644 12.3103 57.7596 11.8131 57.4167 11.4167C57.262 11.2358 57.0705 11.0902 56.8549 10.9896C56.6392 10.889 56.4046 10.8357 56.1667 10.8333C55.781 10.8377 55.4047 10.9534 55.0833 11.1667C54.759 11.3673 54.4988 11.6564 54.3333 12L52.5 11.6667C52.6955 10.9084 53.1722 10.253 53.8333 9.83333C54.5814 9.36653 55.4521 9.13434 56.3333 9.16667C56.8424 9.14127 57.351 9.22477 57.8252 9.41159C58.2995 9.5984 58.7284 9.88423 59.0833 10.25ZM57.4167 16.25C57.6302 15.9981 57.7916 15.7064 57.8918 15.3917C57.9919 15.077 58.0287 14.7456 58 14.4167H56.0833C54.75 14.4167 54.0833 14.8333 54.0833 15.6667C54.0918 15.8267 54.1332 15.9834 54.2049 16.1267C54.2766 16.2701 54.377 16.3972 54.5 16.5C54.8288 16.7701 55.2412 16.9174 55.6667 16.9167C55.9754 16.9259 56.2826 16.8714 56.5694 16.7567C56.8561 16.642 57.1161 16.4696 57.3333 16.25H57.4167ZM62.25 18.4167V9.25H63.8333L64.25 10.5833C64.488 10.1447 64.8317 9.77231 65.25 9.5C65.7342 9.23735 66.2844 9.12151 66.8333 9.16667C67.4171 9.14485 67.9951 9.28935 68.5 9.58333C68.9499 9.89162 69.298 10.3267 69.5 10.8333C69.7459 10.3515 70.121 9.94757 70.5833 9.66667C71.0773 9.33901 71.6572 9.16502 72.25 9.16667C72.8428 9.16502 73.4227 9.33901 73.9167 9.66667C74.4553 9.9786 74.8901 10.4424 75.1667 11C75.4475 11.5996 75.5899 12.2546 75.5833 12.9167V18.5H73.5833V13.0833C73.5539 12.5589 73.3484 12.0598 73 11.6667C72.8577 11.4661 72.6707 11.3014 72.4537 11.1857C72.2368 11.07 71.9958 11.0064 71.75 11C71.4913 11 71.2361 11.0602 71.0046 11.176C70.7732 11.2917 70.5719 11.4597 70.4167 11.6667C70.0805 12.0932 69.9037 12.6237 69.9167 13.1667V18.5H67.8333V13.1667C67.8637 12.6344 67.7172 12.107 67.4167 11.6667C67.2604 11.475 67.0634 11.3205 66.84 11.2144C66.6165 11.1083 66.3723 11.0533 66.125 11.0533C65.8777 11.0533 65.6335 11.1083 65.41 11.2144C65.1866 11.3205 64.9896 11.475 64.8333 11.6667C64.4606 12.0776 64.2529 12.6118 64.25 13.1667V18.3333L62.25 18.4167Z"
      fill="var(--text_primary)" />
  </g>
  <defs>
    <clipPath id="clip0_1_59">
      <rect width="75" height="25" fill="var(--text_primary)" transform="translate(0.5)" />
    </clipPath>
  </defs>
</svg>