<svg id="Empty" xmlns="http://www.w3.org/2000/svg" viewBox="0 0 1024 1024">
  <path fill="currentColor"
    d="M612.02,406.71c79.62-16.97,147.8,5.28,205.22,59.38,15.62,14.8,27.95,34.49,36.9,54.25,52.94,116.86,11.81,240.1-99.41,304.4-43.72,25.22-90.69,38.31-140.59,43.37-104.02,10.31-208.16,8.66-312.17.49-72.57-5.63-131.46-60.66-140.07-132.48-13.34-110.97-20.16-222.31-10.21-334.08,6.48-71.98,32.93-135.64,83.63-187.81,74.39-76.29,212.07-88.8,295.69-22.52,62.78,49.77,91.37,118.06,82.05,199.64-.4,4.11-1.29,8.24-1.82,12.47-.11.36.26.96.78,2.88Z" />
</svg>