<svg xmlns="http://www.w3.org/2000/svg" xmlns:xlink="http://www.w3.org/1999/xlink" fill="white"
  version="1.1" viewBox="0 0 512 512" xml:space="preserve">
  <path fill-opacity="0.1" d="M359,503c-7,7-16-10-19-10-98-2-64-80-128-100-39-13-72,98-140,43-11-10,52,2,54,1,42-9,56-46,40-76-19-34-54-5-64-7-14-2-8-55-12-41-2,8-19,44-22,41-3-3-23-61-7-51,4,3-3,30,13,24,4-1,12-17,8-20-4-2-76-31-59-43,11-8,42,24,55,28,12,5,21-12,42,11,2,2,9,19,9,19,4-7-4-17,2-23,14-14,10,34,20,38,2,1-1-37,6-40,8-4,3,88,49,46,33-29,0-105-39-112-24-4-46,35-57,31-23-8-29-40-60-28-39,14-31,76-42,70-13-8,5-65,12-75,26-39,72-11,90,17,7,10,16-19,27-23,25-12,63-10,80,14,18,23,13,57,8,83,0,3-8,27-7,28,0,0,13,4,14,3,7-37,38-150,98-132,5,1-7,45-5,53,3,21,34,15,43,3,38-52-43-139-18-138,149,8,130,188,142,281,1,11,14,21,9,33-6,16-18,0-25,2-38,10-73,44-117,50z"/>
</svg>