<svg xmlns="http://www.w3.org/2000/svg" xmlns:xlink="http://www.w3.org/1999/xlink" fill="white"
  version="1.1" viewBox="0 0 512 512" xml:space="preserve">
  <path fill-opacity="0.1" d="M375,483c-31,3-101-8-89-55,1-3,23-18,22-31,0-5-16-24-17-36-2-23,7-42,7-42-22,1-44,2-66,1-6,1-11,0-17,1-2,0-6-4-6-2-1,9,10,27,10,37,0,9-2,26-7,33-3,3-8,4-9,8-1,10,10,25,9,38-4,45-53,46-87,46-21,0-46-1-60-19-6-8-14-37-8-44,3-4,10-6,11-11,1,1-10-14-11-17-4-13-3-31-1-45,2-21,17-30,25-47,5-10,2-28,5-39,8-28,25-46,41-70,7-12,10-46,24-52,37-14,2,81,2,84,2,14,16,9,2,29-3,4,7-4,11-7,10-8,30-18,33-31,7-23-18-61-24-83-17-67,16-113,84-113,17,0,36,5,49,16,18,16,15,32,24,51,0,1,10,2,6,7-10,13-17,55-22,74-4,14-26,40-14,55,7,9,45,49,55,54,5,3,17-2,24-1,20,3,40,14,53,30,17,20,26,50,16,76-2,5-11,14-12,19-1,10,11,26,9,40-4,37-41,46-72,47z"/>
</svg>