<svg xmlns="http://www.w3.org/2000/svg" xmlns:xlink="http://www.w3.org/1999/xlink" fill="white"
  version="1.1" viewBox="0 0 512 512" xml:space="preserve">
  <path fill-opacity="0.1" d="M265,502c-39,0-82,0-118-17-11-5-18-13-27-18-23-13-51-22-54-54-2-19,8-17,10-25,3-13-2-22,8-34,5-5,13-6,17-11,3-4,4-10,7-15,1-1,12-9,12-9,0-16-17-41-14-71,1-10,15-40,13-48-1-4-51,1-68-8-17-9,25-16,26-16,8,0,16-2,24-2,9,0,18,0,27-2,2,0,11-48,12-52,4-15,10-32,19-44,3-5,82-60,89-62,8-4,18-4,27-3,21,2,36,20,52,32,10,8,25,11,35,19,29,23,35,70,42,103,0,3,0,6,1,8,6,4,70-2,62,16-7,17-46,1-57,10,1,0,7,17,7,17,4,14,6,28,7,43,0,26-23,69-22,74,0,2,14,12,15,15,12,24-5,48,3,70,2,6,17,17,12,25-8,14-21,5-31,10-3,2,1,6-3,9-5,9-14,15-23,20-32,17-75,19-110,19z"/>
</svg>