<svg xmlns="http://www.w3.org/2000/svg" xmlns:xlink="http://www.w3.org/1999/xlink" version="1.1"
  viewBox="0 0 512 512" xml:space="preserve">
  <path fill-opacity="0.1" d="M269,504c-56-3-173,14-195-57-10-30,4-73,20-98,2-3,18-19,17-23-2-11-20-27-25-39-12-29-14-60-8-91,2-10,8-21,10-31,1-5-87-8-72-28,12-16,71,2,83-7,11-9,19-75,53-98,33-22,96-2,133,1,28,2,66-17,87,7,21,25,34,59,43,90,1,4,0,10,4,11,16,3,66-3,77,12,15,20-68,21-74,23-1,0,1,2,2,4,1,5,0,12,4,15,6,4,29,0,37,1,3,0-6,32-7,35-2,8-3,18-10,24-3,3-13,1-13,4,0,4,7,5,8,9,1,4-4,18-5,21-4,10-17,5-24,9-5,4-28,36-28,36,0,6,16,20,19,26,8,15,15,33,16,50,9,93-84,94-152,94z"/>
</svg>