<svg xmlns="http://www.w3.org/2000/svg" xmlns:xlink="http://www.w3.org/1999/xlink" fill="white"
  version="1.1" viewBox="0 0 512 512" xml:space="preserve">
  <path fill-opacity="0.1" d="M331,503c-29,0-59,0-88,0-28,0-60,4-88,0-6,1,1-10-2-11-13-6-38,2-52,0-11-2-9-19-15-22-7-4-18,3-25-2-30-18-25-119,3-137,17-11,57,1,77-1,3,0-2-6-3-8-1-3-5-18-7-20-9-4-28,2-38,0-3,1-26-58-16-60,31-5,70,10,100,0,8-2,18-16,26-21,5-3,13-2,17-6,2-2-18-51,29-66,30-10,34,11,50,14,9,2,87-11,100-14,9-2,18-8,27-11,1,0,9,18,7,19-18,18-119,39-123,48-3,5-4,10-7,16-2,3-9,5-8,8,14,30,61-4,70,24,4,10,19,37,14,47-4,10-37-4-44,2-3,3,5,35,5,35,4,1,5-6,9-6,16-2,69-8,80,4,8,7,7,28,13,32,15,11,26-12,35,22,6,20-1,46,3,61,3,12,38,39,29,52-4,4-26,1-31,1-49,0-98,0-147,0z"/>
</svg>