<svg xmlns="http://www.w3.org/2000/svg" xmlns:xlink="http://www.w3.org/1999/xlink" fill="white"
  version="1.1" viewBox="0 0 512 512" xml:space="preserve">
  <path fill-opacity="0.1" d="M211,495c-31,0-198,3-200-25-1-20,4-41,11-59,5-12,29-43,28-48-1-7-23-38-27-62-9-69,39-138,99-167,102-49,231,18,247,132,3,19,1,40-5,58,1,3-14,28-13,29,6,5,10,12,17,15,7,4,45,8,52,4,18-7-5-25-1-38,2-5,13-12,13-18,0-9-15-18-15-30,0-14,12-24,8-24-16-2-26-15-31-30-2-8-3-16-3-24,1-3,6-10,2-11-10-2-17,1-27-5-21-13-29-48-14-68,20-28,84-40,108-8,15,21,19,58,7,81-4,7-19,17-21,23,1,1,17,23,18,28,3,14-4,21-6,33-1,10,7,24,5,36-1,10-11,17-14,26-4,15,8,25-4,56-2,5,1,9-5,11-5,3-48-9-49-7-1,2,7,28,4,38-4,13-16,5-18,9-3,6,8,27,0,30-47,21-116,15-166,16z"/>
</svg>