<svg xmlns="http://www.w3.org/2000/svg" xmlns:xlink="http://www.w3.org/1999/xlink"
  version="1.1" viewBox="0 0 512 512" xml:space="preserve">
  <path fill-opacity="0.1" d="M259,507c-44-7-218,18-240-13-9-12-9-246,0-257,17-22,46-3,57-12,3-3,0-39,3-53,15-55,56-104,110-125,86-33,181,10,222,91,7,13,11,29,14,43,2,11-3,36,1,44,0,1,23,1,24,0,2-1-1-8,3-10,8-4,5,9,6,10,14,6,24-3,36,12,11,14,5,78,5,98,0,48,6,100,0,148,0,7-7,15-13,19-16,11-194,5-227,5zM255,483c59,0,118,0,176,0,6,0,43,4,44-3,5-24,3-155,0-181,0-3,2,30-9,37-6,4-41,2-40,14,3,23,13,48,6,72-19,65-156,51-205,49-44-2-106-2-139-37-7-8-5-26-10-32-2-1-29,22-21-17,6-32,51-75,53-85,1-3-15-20-17-23-4-6-9-26-13-29-5-3-32-1-39,0-8,2-4,36-4,42,0,51,0,101,0,152,0,5-3,40,4,41,21,4,46,0,68,0,49,0,98,0,147,0z"/>
</svg>