<svg xmlns="http://www.w3.org/2000/svg" xmlns:xlink="http://www.w3.org/1999/xlink" fill="white"
  version="1.1" viewBox="0 0 512 512" xml:space="preserve">
  <path fill-opacity="0.1" d="M338,485c-89,2-67-21-96-88-2-5-42-12-50-15-48-20-59-60-43-106,3-10,18-30,18-40,0-7-12-21-15-28-4-13-7-29-7-43,0-19,12-42,12-58,0-16-38-56-19-70,16-13,23,8,28,20,0,0,7,20,9,18,42-49,101-85,168-64,70,23,124,95,115,170-2,17-8,34-17,48-2,5-17,17-17,22,1,35,45,56,20,94-14,20-35,31-59,39-8,3-35,7-36,8-1,3,12,21,13,23,24,45,40,68-24,69z"/>
</svg>