<svg xmlns="http://www.w3.org/2000/svg" xmlns:xlink="http://www.w3.org/1999/xlink" version="1.1"
  viewBox="0 0 512 512" xml:space="preserve">
  <path fill-opacity="0.1" d="M189,502c-37-2-167-5-179-47-3-9,7-17,14-22,4-2,17-2,14-7-5-9-18-26-10-37,9-12,27,7,26,1-7-38-6-78,15-112,8-13,18-25,30-33,2-1,6-2,6-4,0-5-24-20-15-28,15-13,43,4,53,1,1,0-9-21,5-16,4,2,10,31,13,30,11-3,20-6,31-7,4,0,10,3,11,1,1-7-15-19-12-30,2-7,7-11,14-9,1,0,10,4,10,4-7-38-2-71,19-104,2-3-31-16-26-25,5-10,17,3,22,6,4,3,7,9,12,9,4,0,18-15,23-18,15-9,33-14,50-17,17-2,36-1,53,4,0,0,15,7,15,6,3-5,15-39,25-29,9,9-15,27-15,36,1,3,26,22,29,25,25,29,29,65,22,101-2,12,23-21,34-7,10,12-13,30-9,39,5,8,50,13,35,34-23,33-118,33-154,33-16,1-32,1-47-2,0,0-18-3-18-1,19,38,31,64,21,107-2,10,20-12,30-9,18,7-9,44-7,47,9,13,42,6,47,28,10,47-161,55-188,54z"/>
</svg>