<svg xmlns="http://www.w3.org/2000/svg" xmlns:xlink="http://www.w3.org/1999/xlink" fill="white"
  version="1.1" viewBox="0 0 512 512" xml:space="preserve">
  <path fill-opacity="0.1" d="M208,507c-16,1-33-8-43-21-19-26-44-113-57-148-9-23-22-43-30-65-4-10-2-24-8-32-16-24-34-63-40-93,0-3,2-7,1-9-11-32-29-60-16-94,10-28,60-24,84-26,46-5,142-23,184-18,14,1,28,10,37,21,0,1,5,14,6,14,5,1,14-3,20-3,35,0,64,9,90,34,36,36,40,85,18,128-2,4,11,26,13,31,9,44-8,54-37,80-2,2,7,21,8,23,12,32,26,63,37,96,5,15-4,45-19,53-23,11-215,30-248,29z"/>
</svg>