<svg xmlns="http://www.w3.org/2000/svg" xmlns:xlink="http://www.w3.org/1999/xlink"
  version="1.1" viewBox="0 0 512 512" xml:space="preserve">
  <path fill-opacity="0.1" d="M251,512c-69,4-155-4-155-91,0-30,28-61,29-72,0-4-7-6-9-9-12-16-21-35-24-54-5-27,9-56,8-72,0-10-13-24-17-33-32-81,26-60,73-45,3,1,19-13,21-14,14-8,31-14,46-17,4,0,13,0,11-3-8-10-16-15-20-27-17-48,41-94,84-64,19,14,29,41,20,64-4,10-10,18-18,26-2,1-7,1-5,3,24,22,58-15,78,15,6,9,4,25,9,34,28,45,54,67,46,127-2,18-9,36-19,50-4,6-11,9-13,16,1,2,4,4,5,6,12,21,16,45,27,66,4,8,16,10,16,17,1,89-136,77-194,77z"/>
</svg>