<svg fill="white" version="1.1" xmlns="http://www.w3.org/2000/svg"
  xmlns:xlink="http://www.w3.org/1999/xlink" viewBox="0 0 512 512" xml:space="preserve">
  <path fill-opacity="0.1" d="M280,486c-50-3-123,6-164-29-12-11-3-14-5-24-3-15-14-25-14-43,0-17,11-35,10-51,0-9-19-27-27-29-10-2-17,7-26-4-4-5-1-10-3-15-2-7-7-10-7-18,0-11,19-33,18-37,0-3-38-18-39-55-2-44,48-73,86-55,6,3,12,8,17,13,2,2,3,9,5,7,56-69,129-111,219-77,58,23,101,78,113,140,2,13,3,29,1,43,1,2-3,19-2,19,15,5,48,11,41,36-7,27-55,18-63,43-5,16,2,37,0,53-2,11-10,19-12,29-1,6,7,12,1,19-30,36-107,34-149,35z" />
</svg>