<svg fill="white" xmlns="http://www.w3.org/2000/svg" xmlns:xlink="http://www.w3.org/1999/xlink"
  version="1.1"
  viewBox="0 0 512 512" xml:space="preserve">
  <path fill-opacity="0.1" d="M208,473c-19-3-79-8-83-31-3-11,2-23,0-33-1-3-30,1-34,0-2,1,1,5-2,6-19,4-37-2-54-6-5-1-10-2-15-4-2,1-2-110-2-122,0-63,0-126,0-189,0-5-3-30,2-33,11-8,30-18,43-22,17-4,104,4,127,5,22,1,46-4,67,1,5,1,1,116,2,117,6,2,7-11,11-16,6-7,14-16,22-22,47-38,116-35,161,6,34,31,53,79,37,124-3,10-18,22-20,31,1,2,30,55,20,87-10,36-53,39-84,41-3,0-25,1-26,1-5,10,5,26-6,35-11,9-29,4-42,9-4,1-6,8-12,10-10,3-33,9-43,6-3-1-5-6-9-6-18-3-41,7-59,7z"/>
</svg>